<svg width="21" height="17" viewBox="0 0 21 17" fill="none" xmlns="http://www.w3.org/2000/svg">
<path d="M18.8997 4.16743C18.8997 4.36275 18.8997 4.519 18.8997 4.71431C18.8997 10.144 14.7981 16.3549 7.25903 16.3549C4.91528 16.3549 2.76685 15.6909 0.969971 14.519C1.28247 14.5581 1.59497 14.5971 1.94653 14.5971C3.8606 14.5971 5.61841 13.9331 7.02466 12.8393C5.22778 12.8002 3.70435 11.6284 3.19653 9.98775C3.46997 10.0268 3.70435 10.0659 3.97778 10.0659C4.32935 10.0659 4.71997 9.98775 5.03247 9.90962C3.15747 9.519 1.75122 7.87837 1.75122 5.88618V5.84712C2.2981 6.15962 2.96216 6.31587 3.62622 6.35493C2.49341 5.61275 1.79028 4.36275 1.79028 2.9565C1.79028 2.17525 1.9856 1.47212 2.33716 0.886185C4.36841 3.34712 7.41528 4.98775 10.8137 5.18306C10.7356 4.87056 10.6965 4.55806 10.6965 4.24556C10.6965 1.97993 12.5325 0.143997 14.7981 0.143997C15.97 0.143997 17.0247 0.612747 17.8059 1.43306C18.7043 1.23775 19.6028 0.886185 20.384 0.417435C20.0715 1.394 19.4465 2.17525 18.5872 2.68306C19.4075 2.60493 20.2278 2.37056 20.9309 2.05806C20.384 2.87837 19.6809 3.5815 18.8997 4.16743Z" fill="white"/>
</svg>
